<svg width="48" height="48" viewBox="0 0 48 48" fill="none" xmlns="http://www.w3.org/2000/svg">
  <path d="M23.5075 4.68387C13.11 4.68387 4.68103 13.1128 4.68103 23.5103C4.68103 33.9079 13.11 42.3368 23.5075 42.3368C33.9051 42.3368 42.334 33.9079 42.334 23.5103C42.334 13.1128 33.9051 4.68387 23.5075 4.68387ZM23.5075 34.9899C17.1675 34.9899 12.028 29.8504 12.028 23.5103C12.028 17.1703 17.1675 12.0308 23.5075 12.0308C29.8476 12.0308 34.9871 17.1703 34.9871 23.5103C34.9871 29.8504 29.8476 34.9899 23.5075 34.9899Z" fill="#C63040"/>
  <path d="M23.1427 34.9832V42.332C13.3762 42.1449 5.43198 34.5212 4.73513 24.8877H0.643912C0.133394 24.8877 -0.173431 24.3212 0.105476 23.8936L8.5018 11.0195C8.75545 10.6306 9.32511 10.6306 9.57867 11.0195L17.9751 23.8936C18.254 24.3212 17.9472 24.8877 17.4366 24.8877H12.1138C12.7803 30.4588 17.4356 34.8037 23.1427 34.9832Z" fill="#FA9334"/>
  <path d="M23.9698 42.3291V46.3763C23.9698 46.8868 23.4033 47.1936 22.9757 46.9147L10.1016 38.5184C9.71263 38.2648 9.71263 37.6951 10.1016 37.4415L22.9757 29.0451C23.4033 28.7662 23.9698 29.073 23.9698 29.5835V34.9791C29.9749 34.7428 34.7944 29.8946 34.9837 23.8774H42.3324C42.1394 33.9524 34.0328 42.0879 23.9698 42.3291Z" fill="#0B344B"/>
  <path d="M46.9148 23.1266L38.5184 36.0007C38.2647 36.3897 37.695 36.3897 37.4414 36.0007L29.0451 23.1266C28.7662 22.699 29.073 22.1325 29.5835 22.1325H34.9063C34.2399 16.5615 29.5845 12.2165 23.8774 12.037V4.68824C33.644 4.87531 41.5882 12.499 42.285 22.1325H46.3762C46.8868 22.1325 47.1936 22.699 46.9148 23.1266Z" fill="#36B2E8"/>
  <path d="M24.0458 0.105421L36.92 8.50182C37.3089 8.75548 37.3089 9.32514 36.92 9.5787L24.0458 17.9751C23.6182 18.254 23.0518 17.9472 23.0518 17.4367V0.643949C23.0518 0.133431 23.6182 -0.173394 24.0458 0.105421Z" fill="#C63040"/>
  <path d="M40.8091 23.5008C40.8091 33.0609 33.0591 40.8109 23.499 40.8109C13.9389 40.8109 6.18889 33.0609 6.18889 23.5008C6.18889 13.9406 13.9389 6.19064 23.499 6.19064C33.0591 6.19064 40.8091 13.9406 40.8091 23.5008Z" fill="white"/>
  <path d="M6.9449 26.1509V21.5378H9.0584C9.3943 21.5378 9.68221 21.5967 9.92213 21.7145C10.1664 21.8279 10.354 21.9936 10.4849 22.2118C10.6157 22.4299 10.6812 22.6894 10.6812 22.9904C10.6812 23.287 10.6135 23.5466 10.4783 23.7691C10.3474 23.9915 10.1599 24.1639 9.91559 24.286C9.67566 24.4038 9.38994 24.4627 9.0584 24.4627H7.84788V26.1509H6.9449ZM7.84788 23.7233H8.90136C9.18927 23.7233 9.40738 23.6666 9.5557 23.5531C9.70402 23.4354 9.77818 23.2521 9.77818 23.0035C9.77818 22.7505 9.70402 22.5673 9.5557 22.4539C9.41175 22.3404 9.19363 22.2837 8.90136 22.2837H7.84788V23.7233Z" fill="#1E1E1E"/>
  <path d="M13.584 26.2163C12.9515 26.2163 12.4651 26.0571 12.1248 25.7386C11.7846 25.4202 11.6145 24.9491 11.6145 24.3253V21.5378H12.5174V24.286C12.5174 24.6699 12.6091 24.9491 12.7923 25.1236C12.9755 25.298 13.2394 25.3853 13.584 25.3853C13.933 25.3853 14.1969 25.298 14.3758 25.1236C14.5546 24.9447 14.644 24.6655 14.644 24.286V21.5378H15.547V24.3253C15.547 24.9447 15.3769 25.4158 15.0366 25.7386C14.6964 26.0571 14.2122 26.2163 13.584 26.2163Z" fill="#1E1E1E"/>
  <path d="M16.7855 26.1509V21.5378H17.5773L20.0179 24.7964H20.0441V21.5378H20.9144V26.1509H20.0703L17.682 22.9381H17.6558V26.1509H16.7855Z" fill="#1E1E1E"/>
  <path d="M22.2106 26.1509V21.5378H23.1136V23.5401H23.1463L25.1094 21.5378H26.2021L23.7745 24.0112L23.8596 23.5531L26.3722 26.1509H25.1944L23.1463 24.0374H23.1136V26.1509H22.2106Z" fill="#1E1E1E"/>
  <path d="M28.8178 26.2163C28.1853 26.2163 27.6989 26.0571 27.3586 25.7386C27.0184 25.4202 26.8482 24.9491 26.8482 24.3253V21.5378H27.7512V24.286C27.7512 24.6699 27.8428 24.9491 28.0261 25.1236C28.2093 25.298 28.4732 25.3853 28.8178 25.3853C29.1668 25.3853 29.4307 25.298 29.6096 25.1236C29.7884 24.9447 29.8778 24.6655 29.8778 24.286V21.5378H30.7808V24.3253C30.7808 24.9447 30.6107 25.4158 30.2704 25.7386C29.9302 26.0571 29.446 26.2163 28.8178 26.2163Z" fill="#1E1E1E"/>
  <path d="M31.6625 26.1509V25.1563H32.7421V26.1509H31.6625Z" fill="#1E1E1E"/>
  <path d="M33.4194 26.1509L35.4936 21.5378H36.2985L38.3727 26.1509H37.4305L36.8808 24.8618L37.2669 25.1824H34.5056L34.8916 24.8618L34.342 26.1509H33.4194ZM35.8731 22.48L34.9636 24.6328L34.7935 24.443H36.979L36.8154 24.6328L35.9059 22.48H35.8731Z" fill="#1E1E1E"/>
  <path d="M39.1506 26.1509V21.5378H40.0535V26.1509H39.1506Z" fill="#1E1E1E"/>
</svg> 